<?xml version="1.0" encoding="UTF-8" standalone="no"?>
<svg
   version="1.1"
   width="64"
   height="64"
   color-interpolation="linearRGB"
   id="svg2954"
   sodipodi:docname="folder-hike.svg"
   inkscape:version="1.2.2 (b0a8486541, 2022-12-01)"
   xmlns:inkscape="http://www.inkscape.org/namespaces/inkscape"
   xmlns:sodipodi="http://sodipodi.sourceforge.net/DTD/sodipodi-0.dtd"
   xmlns:xlink="http://www.w3.org/1999/xlink"
   xmlns="http://www.w3.org/2000/svg"
   xmlns:svg="http://www.w3.org/2000/svg">
  <defs
     id="defs2958">
    <linearGradient
       id="gradient0-3"
       gradientUnits="userSpaceOnUse"
       x1="45.189999"
       y1="-3.4300001"
       x2="66.089996"
       y2="20.77">
      <stop
         offset="0"
         stop-color="#f8c35e"
         id="stop3334" />
      <stop
         offset="1"
         stop-color="#ffaa00"
         id="stop3336" />
    </linearGradient>
    <linearGradient
       id="gradient1-6"
       gradientUnits="userSpaceOnUse"
       x1="64.290001"
       y1="5.4899998"
       x2="75.940002"
       y2="14.73">
      <stop
         offset="0"
         stop-color="#a76404"
         id="stop3341" />
      <stop
         offset="1"
         stop-color="#7f4c00"
         id="stop3343" />
    </linearGradient>
    <linearGradient
       id="gradient2-7"
       gradientUnits="userSpaceOnUse"
       x1="8"
       y1="-64"
       x2="56"
       y2="-64">
      <stop
         offset="0"
         stop-color="#ffe5b3"
         id="stop3348" />
      <stop
         offset="1"
         stop-color="#fdbe44"
         id="stop3350" />
    </linearGradient>
    <linearGradient
       id="gradient3-5"
       gradientUnits="userSpaceOnUse"
       x1="18"
       y1="20"
       x2="34"
       y2="20">
      <stop
         offset="0"
         stop-color="#dc9305"
         id="stop3355" />
      <stop
         offset="0.247"
         stop-color="#946304"
         id="stop3357" />
      <stop
         offset="1"
         stop-color="#b27704"
         id="stop3359" />
    </linearGradient>
    <linearGradient
       id="gradient4-3"
       gradientUnits="userSpaceOnUse"
       x1="4"
       y1="-65"
       x2="50"
       y2="-65">
      <stop
         offset="0"
         stop-color="#ffffff"
         id="stop3364" />
      <stop
         offset="1"
         stop-color="#e79a06"
         id="stop3366" />
    </linearGradient>
    <linearGradient
       id="gradient5"
       gradientUnits="userSpaceOnUse"
       x1="23.870001"
       y1="8.6199999"
       x2="42.869999"
       y2="8.6199999">
      <stop
         offset="0"
         stop-color="#7f4c00"
         id="stop3371" />
      <stop
         offset="0.2509"
         stop-color="#ffaa06"
         id="stop3373" />
      <stop
         offset="1"
         stop-color="#854f03"
         id="stop3375" />
    </linearGradient>
    <linearGradient
       id="gradient6"
       gradientUnits="userSpaceOnUse"
       x1="18.74"
       y1="-69.059998"
       x2="61.869999"
       y2="-69.059998">
      <stop
         offset="0"
         stop-color="#ffecc7"
         id="stop3380" />
      <stop
         offset="1"
         stop-color="#ffaa00"
         id="stop3382" />
    </linearGradient>
    <linearGradient
       inkscape:collect="always"
       xlink:href="#linearGradient3688"
       id="linearGradient2891"
       gradientUnits="userSpaceOnUse"
       x1="-50.970001"
       y1="-21.459999"
       x2="-21.969999"
       y2="-48.439999"
       gradientTransform="matrix(0.51692759,0,0,0.51692759,1.8040912,32.757667)" />
    <linearGradient
       id="linearGradient3688">
      <stop
         style="stop-color:#00d15b;stop-opacity:1;"
         offset="0"
         id="stop3690" />
      <stop
         style="stop-color:#004c05;stop-opacity:1;"
         offset="1"
         id="stop3692" />
    </linearGradient>
    <linearGradient
       inkscape:collect="always"
       xlink:href="#linearGradient3688"
       id="linearGradient2894"
       gradientUnits="userSpaceOnUse"
       x1="39.75"
       y1="35.259998"
       x2="42.450001"
       y2="41.73"
       gradientTransform="matrix(0.51692759,0,0,0.51692759,1.8040912,32.757667)" />
    <linearGradient
       inkscape:collect="always"
       xlink:href="#linearGradient3688"
       id="linearGradient2897"
       gradientUnits="userSpaceOnUse"
       x1="-41.098476"
       y1="32.25"
       x2="-6.1423731"
       y2="-6.448473"
       gradientTransform="matrix(0.51692759,0,0,0.51692759,1.8040912,32.757667)" />
    <radialGradient
       inkscape:collect="always"
       xlink:href="#linearGradient3688"
       id="radialGradient2900"
       gradientUnits="userSpaceOnUse"
       gradientTransform="matrix(0.01377509,0.1472072,-0.2025215,0.0189413,25.677184,38.184164)"
       cx="46.966564"
       cy="23.231134"
       r="64"
       fx="46.966564"
       fy="23.231134" />
    <radialGradient
       inkscape:collect="always"
       xlink:href="#linearGradient3688"
       id="radialGradient2903"
       gradientUnits="userSpaceOnUse"
       gradientTransform="matrix(-0.21153086,0.20986304,-0.11388177,-0.11480524,19.787743,52.982614)"
       cx="0"
       cy="0"
       r="64"
       fx="0"
       fy="0" />
    <linearGradient
       inkscape:collect="always"
       xlink:href="#linearGradient3688"
       id="linearGradient3694"
       x1="23.711864"
       y1="39.072205"
       x2="7.9830508"
       y2="24.156948"
       gradientUnits="userSpaceOnUse"
       gradientTransform="matrix(0.51692759,0,0,0.51692759,1.8040912,32.757667)" />
    <linearGradient
       inkscape:collect="always"
       xlink:href="#gradient0-5"
       id="linearGradient2910"
       gradientUnits="userSpaceOnUse"
       x1="79"
       y1="7"
       x2="79"
       y2="59"
       gradientTransform="matrix(0.51692759,0,0,0.51692759,1.8040912,32.757667)" />
    <linearGradient
       y2="59"
       x2="79"
       y1="7"
       x1="79"
       gradientUnits="userSpaceOnUse"
       id="gradient0-5">
      <stop
         id="stop7"
         stop-opacity="0.4"
         stop-color="#010101"
         offset="0" />
      <stop
         id="stop9"
         stop-opacity="0.5215"
         stop-color="#010101"
         offset="1" />
    </linearGradient>
  </defs>
  <sodipodi:namedview
     id="namedview2956"
     pagecolor="#ffffff"
     bordercolor="#000000"
     borderopacity="0.25"
     inkscape:showpageshadow="2"
     inkscape:pageopacity="0.0"
     inkscape:pagecheckerboard="0"
     inkscape:deskcolor="#d1d1d1"
     showgrid="false"
     inkscape:zoom="1.34375"
     inkscape:cx="32"
     inkscape:cy="33.116279"
     inkscape:window-width="1730"
     inkscape:window-height="1045"
     inkscape:window-x="0"
     inkscape:window-y="0"
     inkscape:window-maximized="1"
     inkscape:current-layer="svg2954" />
  <g
     id="g2952">
    <path
       style="fill:#010101; fill-opacity:0.396"
       d="M42 61H48L52 57H56L62 51L48 47L42 61z"
       id="path2909" />
    <path
       style="fill:none; stroke:#000000; stroke-width:4"
       d="M3 15L13 41L42 59L60 12L48 10L44 12L26 8L24 13L16 11L15.91 19.2L3 15z"
       id="path2911" />
    <linearGradient
       id="gradient0"
       gradientUnits="userSpaceOnUse"
       x1="102.6"
       y1="8.5"
       x2="102.74"
       y2="47.07">
      <stop
         offset="0"
         stop-color="#face79"
         id="stop2913" />
      <stop
         offset="1"
         stop-color="#bc4105"
         id="stop2915" />
    </linearGradient>
    <path
       style="fill:url(#gradient0)"
       d="M26 8L14 41L42 58L60 12L48 10L44 12L26 8z"
       id="path2918" />
    <linearGradient
       id="gradient1"
       gradientUnits="userSpaceOnUse"
       x1="103.24"
       y1="12.68"
       x2="103.39"
       y2="55.34">
      <stop
         offset="0"
         stop-color="#ffffff"
         id="stop2920" />
      <stop
         offset="1"
         stop-color="#8e8e8e"
         id="stop2922" />
    </linearGradient>
    <path
       style="fill:url(#gradient1)"
       d="M16 11V41L42 57L49 22L16 11z"
       id="path2925" />
    <linearGradient
       id="gradient2"
       gradientUnits="userSpaceOnUse"
       x1="78.34"
       y1="-26.66"
       x2="101.46"
       y2="12.94">
      <stop
         offset="0"
         stop-color="#9a9a9a"
         id="stop2927" />
      <stop
         offset="1"
         stop-color="#505050"
         id="stop2929" />
    </linearGradient>
    <path
       style="fill:url(#gradient2)"
       d="M16 11L49 22L42 57L52 20.37L16 11z"
       id="path2932" />
    <linearGradient
       id="gradient3"
       gradientUnits="userSpaceOnUse"
       x1="88.52"
       y1="9.59"
       x2="97.54"
       y2="51.29">
      <stop
         offset="0"
         stop-color="#ffe2ac"
         id="stop2934" />
      <stop
         offset="1"
         stop-color="#f49806"
         id="stop2936" />
    </linearGradient>
    <path
       style="fill:url(#gradient3)"
       d="M3 15L13 41L42 59L38 30L3 15z"
       id="path2939" />
    <path
       style="fill:#a03d03"
       d="M3 15L38 30L42 59L40.5 28L3 15z"
       id="path2941" />
    <radialGradient
       id="gradient4"
       gradientUnits="userSpaceOnUse"
       cx="0"
       cy="0"
       r="64"
       gradientTransform="matrix(0.0874,-0.379,0.4747,0.1095,8.1495,41.5888)">
      <stop
         offset="0"
         stop-color="#ffb11b"
         id="stop2945" />
      <stop
         offset="1"
         stop-color="#fff9c7"
         id="stop2947" />
    </radialGradient>
  </g>
  <path
     id="path11"
     d="m 3.8718014,62.739467 h 2.5846379 c 3.1015655,-2.06771 5.6862037,-4.652348 5.6862037,-4.652348 l 5.169276,5.686203 c 0,0 1.033855,-0.516927 1.550782,-4.13542 4.135421,2.06771 11.372407,1.550782 12.92319,0 0,-4.135421 -6.720059,-4.652349 -6.720059,-4.652349 4.135421,-0.516927 9.304697,-4.13542 9.821624,-6.203131 0,-2.584638 -7.236986,-2.584638 -7.236986,-2.584638 3.101566,-2.06771 5.169276,-5.686203 4.135421,-7.753914 -0.904623,-0.646159 -3.101566,0 -3.101566,0 L 4.388729,56.536336 c 1.5507827,1.033855 4.6523483,1.033855 4.6523483,1.033855 z"
     style="fill:url(#linearGradient2910);stroke-width:0.516928" />
  <path
     id="path13"
     d="m 25.58276,46.197784 c 0,0 5.169276,-6.203131 2.06771,-10.338552 -4.393884,0.775392 -7.753914,7.753914 -7.753914,7.753914 l -2.06771,6.720059 z M 4.9056565,44.130074 c -0.5169275,4.652348 3.1015656,9.304697 3.1015656,9.304697 -2.0677104,0 -3.6184931,1.550782 -3.6184931,1.550782 0,0 2.0677103,1.033855 7.236986,0.516928 l 6.203131,-5.169276 2.06771,-6.720059 c 0,0 -1.033855,-4.135421 -5.686203,-5.686203 -3.618493,4.13542 -1.550783,10.338552 -1.550783,10.338552 0,0 -2.584638,-4.652349 -7.7539135,-4.135421 z M 12.65957,56.019408 c 0,4.652349 3.101566,6.203132 3.101566,6.203132 0,0 2.06771,-2.584638 1.550783,-4.135421 0,0 6.720058,3.101565 11.889334,0.516927 0.516928,-3.101565 -6.720059,-4.652348 -6.720059,-4.652348 0,0 8.787769,-1.550783 10.338552,-7.236986 -0.516928,-2.067711 -7.236986,-0.516928 -7.236986,-0.516928 l -7.753914,4.135421 z m -1.033855,-0.516927 c -3.1015653,2.584638 -8.2708412,4.652348 -8.2708412,4.652348 l 2.0677103,0.516928 c 0,0 4.6523479,-2.584638 7.2369859,-4.652349 z"
     style="fill:none;stroke:#000000;stroke-width:2.06771" />
  <path
     id="path20"
     d="m 4.9056565,44.130074 c -0.5169275,4.652348 3.1015656,9.304697 3.1015656,9.304697 -2.0677104,0 -3.6184931,1.550782 -3.6184931,1.550782 0,0 2.0677103,1.033855 7.236986,0.516928 l 6.203131,-5.169276 2.06771,-6.720059 c 0,0 -1.033855,-4.135421 -5.686203,-5.686203 -3.618493,4.13542 -1.550783,10.338552 -1.550783,10.338552 0,0 -2.584638,-4.652349 -7.7539135,-4.135421 z"
     style="fill:url(#linearGradient3694);fill-opacity:1;stroke-width:0.516928" />
  <path
     id="path27"
     d="m 12.65957,56.019408 c 0,4.652349 3.101566,6.203132 3.101566,6.203132 0,0 2.06771,-2.584638 1.550783,-4.135421 0,0 6.720058,3.101565 11.889334,0.516927 0.516928,-3.101565 -6.720059,-4.652348 -6.720059,-4.652348 0,0 8.787769,-1.550783 10.338552,-7.236986 -0.516928,-2.067711 -7.236986,-0.516928 -7.236986,-0.516928 l -7.753914,4.135421 z"
     style="display:inline;fill:url(#radialGradient2903);fill-opacity:1;stroke-width:0.516928" />
  <path
     id="path34"
     d="m 25.58276,46.197784 c 0,0 5.169276,-6.203131 2.06771,-10.338552 -4.393884,0.775392 -7.753914,7.753914 -7.753914,7.753914 l -2.06771,6.720059 z"
     style="display:inline;fill:url(#radialGradient2900);fill-opacity:1;stroke-width:0.516928" />
  <path
     id="path41"
     d="m 11.816978,55.760945 c 0,0 1.033855,-0.940809 2.005679,-1.809247 -2.196942,-1.550783 -4.7815797,-4.652348 -4.7815797,-4.652348 0,0 3.6184927,3.101565 5.4639247,4.042374 0.945977,-0.8581 1.152748,-0.976994 2.657008,-2.439899 -0.367019,-4.187113 -1.917802,-8.322534 -1.917802,-8.322534 0,0 2.584638,4.652348 2.775901,7.49545 3.101566,-3.101565 7.236986,-8.270841 7.236986,-8.270841 0,0 -3.292828,5.427739 -6.513287,8.668875 3.928649,0.635821 8.906662,-1.173425 8.906662,-1.173425 0,0 -5.49494,2.326174 -9.583837,1.907463 -1.411213,1.514597 -1.607645,1.705861 -2.56913,2.620822 3.039534,1.93331 8.017546,3.225629 8.017546,3.225629 0,0 -4.285329,-0.470404 -8.270841,-2.584638 -0.951147,0.878777 -2.584638,2.584638 -2.584638,2.584638 z"
     style="display:inline;fill:url(#linearGradient2897);fill-opacity:1;stroke-width:0.516928" />
  <path
     id="path48"
     d="m 11.625715,55.502481 c -3.1015653,2.584638 -8.2708412,4.652348 -8.2708412,4.652348 l 2.0677103,0.516928 c 0,0 4.6523479,-2.584638 7.2369859,-4.652349 z"
     style="display:inline;fill:url(#linearGradient2894);fill-opacity:1;stroke-width:0.516928" />
  <path
     id="path55"
     d="m 11.625715,55.502481 c 0,0 3.101566,-2.06771 5.686204,-4.652348 3.897634,-3.902804 7.753913,-9.304697 7.753913,-9.304697 0,0 -3.101565,5.169276 -6.518457,8.668876 3.933819,0.635821 9.103095,-0.914962 9.103095,-0.914962 0,0 -5.686203,2.06771 -9.78027,1.648999 -1.406043,1.514598 -1.607644,1.705861 -2.563961,2.620823 3.039535,1.933309 8.20881,3.484092 8.20881,3.484092 0,0 -4.590316,-0.971824 -8.772261,-2.832764 -0.951146,0.883947 -2.083218,1.798908 -2.083218,1.798908 z"
     style="fill:url(#linearGradient2891);fill-opacity:1;stroke-width:0.516928" />
</svg>
